<svg viewBox="0 0 24 24" id="Layer_1" data-name="Layer 1" xmlns="http://www.w3.org/2000/svg" fill="#000000"><g id="SVGRepo_bgCarrier" stroke-width="0"></g><g id="SVGRepo_tracerCarrier" stroke-linecap="round" stroke-linejoin="round"></g><g id="SVGRepo_iconCarrier"><defs><style>.cls-1{fill:none;stroke:#020202;stroke-miterlimit:10;stroke-width:1.91px;}.cls-2{fill:#020202;}</style></defs><rect class="cls-1" x="5.36" y="5.32" width="13.36" height="13.36" rx="1.91" transform="translate(24.05 -0.05) rotate(90)"></rect><polygon class="cls-1" points="16.82 18.68 15.86 22.5 8.23 22.5 7.27 18.68 16.82 18.68"></polygon><polygon class="cls-1" points="7.27 5.32 8.23 1.5 15.86 1.5 16.82 5.32 7.27 5.32"></polygon><line class="cls-1" x1="20.64" y1="10.09" x2="18.73" y2="10.09"></line><line class="cls-1" x1="20.64" y1="13.91" x2="18.73" y2="13.91"></line><path class="cls-2" d="M13.11,8.18a1.26,1.26,0,0,0-1.06.57A1.29,1.29,0,0,0,11,8.18,1.27,1.27,0,0,0,9.71,9.45c0,1.91,2.34,2.55,2.34,2.55s2.33-.64,2.33-2.55A1.27,1.27,0,0,0,13.11,8.18Z"></path><line class="cls-1" x1="8.23" y1="14.86" x2="10.14" y2="14.86"></line><line class="cls-1" x1="11.09" y1="14.86" x2="13" y2="14.86"></line><line class="cls-1" x1="13.95" y1="14.86" x2="15.86" y2="14.86"></line></g></svg>